<svg width="300" height="66" viewBox="0 0 300 66" fill="none" xmlns="http://www.w3.org/2000/svg">
<path d="M29.7914 36.0235C33.5308 34.2991 36.7425 32.7698 39.0558 31.3708C41.4218 29.86 43.5285 28.001 45.2994 25.8612C47.0597 23.6867 48.0586 21.028 48.1518 18.2693C48.4129 15.4095 47.7957 12.5388 46.3775 10.0158C44.8767 7.61553 42.796 5.60226 40.3135 4.14833C37.5948 2.69098 34.635 1.70019 31.5657 1.22002C30.0799 0.998701 28.5726 0.944111 27.0738 1.05734H26.9503L17.9666 1.74061L13.3737 8.11782V9.65789C13.0593 10.1997 12.8214 10.7796 12.6663 11.3823L13.5534 11.7186L13.7331 16.8919L22.6494 15.688C24.2552 11.545 26.7482 9.83142 29.7914 10.3412C30.4674 10.4526 31.1135 10.6933 31.692 11.049C32.2705 11.4047 32.7696 11.8683 33.1603 12.4127C33.8349 13.6259 34.146 14.9968 34.0586 16.3713C33.8789 18.2693 32.8121 20.1673 31.0266 22.4015C28.9139 24.6249 26.5821 26.6444 24.0643 28.4316C21.4435 30.3158 18.7058 32.0434 15.8667 33.605C13.1828 35.145 11.2289 36.3597 9.97115 37.043L9.44336 44.9711L44.7604 55.8167L45.4679 44.9711L23.5814 38.941V38.7675C24.0755 38.4312 26.2204 37.5744 29.7914 36.0235Z" fill="#BF2824"/>
<path d="M35.6764 57.3792L36.5635 46.3601L14.2728 40.1564V40.0263C14.8006 39.8528 16.7658 38.8224 20.5165 37.2715C23.7618 35.843 26.9155 34.2277 29.9605 32.4344C32.4118 30.9591 34.5343 29.0272 36.2042 26.7513C37.9353 24.5613 38.9307 21.9119 39.0565 19.1594C39.3311 16.2202 38.6311 13.2729 37.0576 10.7432C35.5886 8.2624 33.4244 6.23239 30.814 4.88658C28.1039 3.44501 25.1679 2.4412 22.1223 1.91489C19.3212 1.47542 16.4536 1.65339 13.7338 2.43548C11.3059 3.08394 9.09309 4.32813 7.31046 6.04706C5.46755 7.75431 4.11022 9.89063 3.36888 12.2507L13.7113 16.9035C15.3172 12.5653 17.462 10.6998 20.4491 11.2204C21.1256 11.3264 21.7728 11.5637 22.3518 11.9178C22.9308 12.272 23.4296 12.7357 23.818 13.2811C24.4924 14.4983 24.8034 15.8726 24.7163 17.2506C24.3483 19.5429 23.2216 21.6585 21.5047 23.2807C19.412 25.5004 17.0988 27.5165 14.5985 29.3C11.9776 31.1842 9.24 32.9118 6.40087 34.4733C3.57101 36.0243 1.60583 37.2281 0.53902 37.9222L0 45.8395L35.6764 57.3792Z" fill="#E74B4A"/>
<path d="M56.7206 34.9945L62.2455 17.2511L59.5729 10.3533L57.0799 10.7438C56.9868 9.4796 56.6716 8.23997 56.1479 7.07794L60.4263 3.82426L49.1968 2.27334C47.296 2.07758 45.3764 2.13597 43.4921 2.44687C40.6832 2.96171 38.01 4.01655 35.6314 5.54871C33.0999 7.2676 30.9217 9.42648 29.2081 11.9151C27.2715 14.5626 25.88 17.5451 25.1093 20.7L34.9127 23.1186L46.3781 14.4855C46.3781 14.8325 46.5578 15.3531 46.5578 15.8737C46.3438 18.2879 45.6134 20.633 44.4129 22.7607C42.6574 25.9797 40.692 29.0878 38.5286 32.0662C36.0244 35.5042 33.5315 38.9531 30.4995 42.5647C27.4675 46.1763 25.3226 48.9419 23.8965 50.8724V60.0044L33.6887 64.7873L68.2871 38.7579L56.7206 34.9945Z" fill="#1E5D65"/>
<path d="M68.5002 48.0842V38.4317L49.758 46.1863V46.0127C50.2971 45.4921 52.0826 43.0844 55.4739 39.2993C58.6856 35.5034 61.1785 32.4015 62.964 29.8203C64.6686 27.3879 66.1027 24.7887 67.2425 22.0657C68.27 19.6559 68.815 17.0797 68.8483 14.4738C68.9847 12.1116 68.361 9.76659 67.0628 7.76033C65.9028 6.04716 64.1196 4.81649 62.0657 4.31143C59.5631 3.64276 56.9281 3.58315 54.3959 4.1379C51.4184 4.71044 48.5775 5.81383 46.0186 7.39158C43.2753 9.18398 40.9121 11.4664 39.0562 14.1158C37.1095 16.914 35.6738 20.0137 34.8115 23.2804L47.164 22.9333C48.4105 17.76 50.5329 14.8317 53.4077 14.1484C53.9508 13.9298 54.5505 13.8781 55.1252 14.0003C55.6998 14.1226 56.2215 14.4129 56.6193 14.8317C57.3557 15.855 57.7047 17.0921 57.6075 18.3348C57.4421 20.8893 56.6491 23.3691 55.2942 25.5688C53.4865 28.9593 51.4613 32.2375 49.2302 35.3841C46.726 39.0065 43.8737 42.6181 40.8417 46.414C37.6301 50.3727 35.3168 53.301 33.8906 55.0254V64.5045L68.5002 48.0842Z" fill="#32909D"/>
<path d="M97.0763 16.0541C96.7878 16.0541 96.6435 16.2004 96.6435 16.4929V36.2881C96.6435 36.5807 96.7878 36.7269 97.0763 36.7269H112.033C113.732 36.7269 115.175 37.0195 116.361 37.6046C117.579 38.1571 118.589 38.9372 119.391 39.9449C120.192 40.92 120.834 42.0739 121.314 43.4066C121.795 44.7068 122.18 46.1045 122.469 47.5997H84.7168V14.5914C84.7168 13.1612 85.0053 11.8773 85.5824 10.7396C86.1595 9.56946 86.913 8.57807 87.8428 7.76546C88.8046 6.95285 89.8947 6.31901 91.113 5.86395C92.3634 5.40889 93.6458 5.18136 94.9603 5.18136H122.469C122.18 6.64406 121.795 8.04175 121.314 9.37443C120.834 10.7071 120.176 11.8773 119.343 12.8849C118.541 13.8926 117.547 14.6889 116.361 15.274C115.175 15.8591 113.732 16.1516 112.033 16.1516L97.0763 16.0541Z" fill="white"/>
<path d="M148.306 36.922C148.306 36.1419 148.338 35.378 148.402 34.6304C148.466 33.8503 148.498 33.0864 148.498 32.3388C148.498 32.0138 148.338 31.8513 148.017 31.8513H135.177C134.856 31.8513 134.696 32.0138 134.696 32.3388V38.2384C134.696 39.9611 134.327 41.4076 133.59 42.5777C132.885 43.7154 131.955 44.658 130.801 45.4056C129.678 46.1207 128.412 46.6571 127.001 47.0146C125.591 47.3722 124.18 47.6322 122.769 47.7947V14.6402C122.769 13.21 123.058 11.926 123.635 10.7884C124.212 9.61822 124.965 8.62683 125.895 7.81422C126.857 6.9691 127.947 6.31901 129.165 5.86395C130.416 5.40889 131.698 5.18136 133.013 5.18136H160.425V47.7947C158.726 47.5997 157.139 47.2909 155.664 46.8683C154.189 46.4458 152.907 45.8444 151.817 45.0643C150.727 44.2517 149.861 43.1953 149.22 41.8952C148.61 40.5625 148.306 38.9047 148.306 36.922ZM148.498 16.5417C148.498 16.2166 148.338 16.0541 148.017 16.0541H135.177C134.856 16.0541 134.696 16.2166 134.696 16.5417V20.5397C134.696 20.8323 134.856 20.9785 135.177 20.9785H148.017C148.338 20.9785 148.498 20.8323 148.498 20.5397V16.5417Z" fill="white"/>
<path d="M191.754 47.5997H164.246C164.534 46.1045 164.919 44.7068 165.4 43.4066C165.881 42.0739 166.522 40.92 167.324 39.9449C168.125 38.9372 169.119 38.1571 170.305 37.6046C171.523 37.0195 172.982 36.7269 174.682 36.7269H189.638C189.927 36.7269 190.071 36.5807 190.071 36.2881V32.2901C190.071 31.965 189.927 31.8025 189.638 31.8025H164.438V14.5914C164.438 13.1612 164.727 11.8773 165.304 10.7396C165.881 9.56946 166.634 8.57807 167.564 7.76546C168.526 6.95285 169.616 6.31901 170.834 5.86395C172.085 5.40889 173.367 5.18136 174.682 5.18136H202.19C201.901 6.64406 201.517 8.04175 201.036 9.37443C200.555 10.7071 199.898 11.8773 199.064 12.8849C198.262 13.8926 197.269 14.6889 196.082 15.274C194.896 15.8591 193.453 16.1516 191.754 16.1516L176.798 16.0541C176.509 16.0541 176.365 16.2004 176.365 16.4929V20.491C176.365 20.816 176.509 20.9785 176.798 20.9785H201.998V38.1896C201.998 39.5873 201.709 40.8713 201.132 42.0414C200.555 43.2116 199.785 44.203 198.823 45.0156C197.894 45.8282 196.804 46.462 195.553 46.9171C194.335 47.3722 193.069 47.5997 191.754 47.5997Z" fill="white"/>
<path d="M204.839 47.8435V14.5426C204.839 13.3075 205.095 12.1861 205.608 11.1784C206.089 10.1383 206.746 9.19566 207.58 8.35054C208.157 7.76546 208.814 7.27789 209.552 6.88784C210.289 6.46528 211.059 6.14024 211.86 5.91271C212.694 5.65267 213.527 5.45764 214.361 5.32763C215.226 5.19761 216.06 5.08384 216.862 4.98633V38.2384C216.862 39.4736 216.605 40.6112 216.092 41.6514C215.611 42.659 214.954 43.5854 214.12 44.4305C213.543 45.0156 212.87 45.5032 212.101 45.8932C211.363 46.3158 210.578 46.6408 209.744 46.8683C208.943 47.1284 208.125 47.3234 207.291 47.4534C206.458 47.6159 205.64 47.746 204.839 47.8435Z" fill="white"/>
<path d="M246.547 47.7947V16.5417C246.547 16.2166 246.387 16.0541 246.066 16.0541H233.226C232.905 16.0541 232.745 16.2166 232.745 16.5417V38.2384C232.745 39.9611 232.376 41.4076 231.638 42.5777C230.933 43.7154 230.003 44.658 228.849 45.4056C227.727 46.1207 226.461 46.6571 225.05 47.0146C223.639 47.3722 222.229 47.6322 220.818 47.7947V14.6402C220.818 13.21 221.106 11.926 221.684 10.7884C222.261 9.61822 223.014 8.62683 223.944 7.81422C224.906 6.9691 225.996 6.31901 227.214 5.86395C228.464 5.40889 229.747 5.18136 231.061 5.18136H258.474V38.2384C258.474 39.9611 258.105 41.4076 257.367 42.5777C256.662 43.7154 255.732 44.658 254.578 45.4056C253.424 46.1207 252.142 46.6571 250.731 47.0146C249.32 47.3722 247.926 47.6322 246.547 47.7947Z" fill="white"/>
<path d="M289.756 47.5997H262.44V14.5914C262.44 13.1612 262.728 11.8773 263.305 10.7396C263.882 9.56946 264.636 8.57807 265.566 7.76546C266.527 6.95285 267.618 6.31901 268.836 5.86395C270.086 5.40889 271.369 5.18136 272.683 5.18136H299.999V38.1896C299.999 39.5873 299.711 40.8713 299.134 42.0414C298.556 43.2116 297.787 44.203 296.825 45.0156C295.895 45.8282 294.805 46.462 293.555 46.9171C292.337 47.3722 291.07 47.5997 289.756 47.5997ZM288.072 16.4929C288.072 16.2004 287.928 16.0541 287.64 16.0541H274.799C274.511 16.0541 274.366 16.2004 274.366 16.4929V36.2881C274.366 36.5807 274.511 36.7269 274.799 36.7269H287.64C287.928 36.7269 288.072 36.5807 288.072 36.2881V16.4929Z" fill="white"/>
</svg>
